<svg xmlns="http://www.w3.org/2000/svg" viewBox="0 0 194 60"><path fill="#7acfda" d="M19.569 30.084c-.083 3.888 2.264 7.66 5.77 9.333 3.566 1.835 8.186 1.389 11.248-1.238 2.977-2.367 4.483-6.428 3.647-10.153-.801-4.156-4.319-7.671-8.547-8.246-4.272-.742-8.84 1.493-10.856 5.334a10.408 10.408 0 00-1.262 4.97zm15.024 0c.097 2.527-2.241 4.723-4.739 4.6-2.7-.002-4.965-2.778-4.373-5.425.37-2.296 2.669-4.055 4.988-3.743 2.286.197 4.163 2.272 4.124 4.568zm-24.8-.089c-.072 6.942 3.773 13.731 9.73 17.283 6.2 3.846 14.502 3.895 20.749.126 5.993-3.478 9.92-10.211 9.937-17.148.128-6.144-2.748-12.245-7.577-16.047a20.142 20.142 0 00-2.342-1.622l-2.262 5.473c4.447 2.939 6.95 8.483 6.239 13.762-.511 4.813-3.745 9.17-8.153 11.144-4.653 2.227-10.523 1.747-14.624-1.43-3.924-2.944-6.35-7.918-5.797-12.85.533-6.013 5.153-11.483 11.096-12.75 1.91-.43 3.906-.439 5.829-.083l2.265-5.48c-5.987-1.55-12.63-.096-17.441 3.78-4.805 3.76-7.707 9.754-7.649 15.842zM30 0c-6.9-.017-13.77 2.447-19.085 6.845L15.069 11c5.194-4.163 12.163-6.02 18.732-4.88 8.106 1.292 15.43 6.91 18.534 14.544 2.516 6.07 2.431 13.17-.258 19.168l4.359 4.358c4.353-8.019 4.737-18.047.976-26.364C53.735 9.454 46.031 2.988 37.132.86A30.115 30.115 0 0030 0zm15.348 48.659c-5.48 4.573-13.037 6.485-20.032 5.044-.62-.022-1.543-.715-1.645.24l-2.015 4.872c8.022 2.37 16.969 1.165 24.07-3.257a29.847 29.847 0 003.226-2.291l6.554 6.553 4.131-4.13L49.045 45.1a50.21 50.21 0 01-3.697 3.559zm-29.934.588c-5.996-4.488-9.686-11.883-9.571-19.383-.005-5.283 1.818-10.538 5.077-14.694l-4.156-4.155C2.156 16.617-.286 23.92.019 31.172c.262 8.462 4.366 16.696 10.95 22.015a29.968 29.968 0 005.224 3.455l2.241-5.422a22.446 22.446 0 01-3.02-1.973z" class="cls-1" data-name="Фигура 676"/><path fill="#fff" d="M96.619 41.707c.006 2.965 2.334 5.699 5.257 6.187 2.196.417 4.573-.312 6.124-1.921v-5.277h-4.626v2.384h2.1v1.3c-1.648 1.283-4.432.896-5.406-1.04-.918-1.66-.192-4.028 1.605-4.745 1.435-.627 3.241-.264 4.301.898L108 37.46c-2.32-2.503-6.628-2.759-9.175-.459a6.428 6.428 0 00-2.206 4.706zm91.654-3.31c1.313-.313 2.782.097 3.7 1.1L194 37.465c-2.395-2.57-6.914-2.792-9.437-.29-2.127 1.967-2.556 5.45-.975 7.877 1.247 2.052 3.72 3.197 6.094 2.932 1.624-.107 3.184-.857 4.318-2.01V40.7h-4.626v2.384h2.1v1.3c-1.612 1.25-4.308.923-5.338-.92-1.01-1.662-.305-4.126 1.537-4.862.193-.086.4-.15.6-.205zm-77.9 9.3h3.079v-11.98h-3.079v11.98zM123.7 42.3l-5.234-6.589h-2.634v11.98h3.027V41.07l5.3 6.623h2.549v-11.98H123.7V42.3zm-32.479 0l-5.234-6.589H83.35v11.98h3.028V41.07l5.3 6.623h2.549v-11.98h-3.011c.003 2.194-.007 4.401.005 6.587zm73.138 5.391h3.079v-11.98h-3.079v11.98zM177.68 42.3l-5.235-6.589h-2.634v11.98h3.028V41.07l5.3 6.623h2.549v-11.98h-3.01c.001 2.195-.003 4.395.002 6.587zm-15.96-2.892c.096-1.775-1.391-3.243-3.05-3.589-1.066-.205-2.16-.069-3.241-.108h-3.647v11.98h3.079v-4.569h1.231l3.387 4.569h3.541l-3.626-4.912c1.394-.476 2.375-1.899 2.326-3.371zm-4.482 1.2h-2.377v-2.293c.962.02 1.935-.043 2.89.038.922.219 1.165 1.59.331 2.076a1.17 1.17 0 01-.844.179zm-28.154 7.085h8.973v-2.7h-5.894v-1.975h5.276v-2.6h-5.276v-2h5.894v-2.7h-8.973v11.975zm-57.083 0h8.973v-2.7H75.08v-1.975h5.276v-2.6H75.08v-2h5.894v-2.7H72c0 3.988-.001 8.004.001 11.975zm68.432 0h8.973v-2.7h-5.894v-1.975h5.276v-2.6h-5.276v-2h5.894v-2.7h-8.973v11.975zM79.989 13.241h-2.96L72 25.289h3.25l1.01-2.533h4.447l1.009 2.533h3.3l-5.027-12.048zm-2.754 7.051l1.248-3.2 1.249 3.2h-2.497zm42.516 4.99h3.3l-5.029-12.048h-2.959l-5.029 12.048h3.25l1.009-2.533h4.448l1.01 2.533zm-4.482-5l1.249-3.2 1.249 3.2h-2.498zm20.132 5V13.3h-3.011v6.589l-5.234-6.589h-2.634v11.98h3.027v-6.623l5.3 6.623c.85.001 1.704-.003 2.552.002zM98.044 19.3c.108-2.239-1.308-4.382-3.331-5.297-1.263-.67-2.705-.733-4.101-.693H86.65v11.98c1.916-.014 3.834.03 5.748-.027 2.485-.221 4.919-1.942 5.487-4.451a5.578 5.578 0 00.158-1.512zm-6.843 3.286H89.73v-6.572c1.423.016 3.025-.172 4.173.854 1.174 1.095 1.247 3.08.413 4.395-.682 1.009-1.977 1.32-3.115 1.323zm15.1 2.711l4.91-12.049h-3.353l-2.994 7.805-2.976-7.805h-3.4l4.892 12.049h2.921zm53.412-2.72h-5.894V20.6h5.281V18h-5.276v-2h5.894v-2.7h-8.973v11.98h8.973c-.003-.9.007-1.808-.005-2.703zm-18.568 2.381c2.516 1.197 5.753.625 7.665-1.418l-2.027-2.028c-1.391 1.576-4.192 1.618-5.516-.065-1.264-1.452-.918-3.911.682-4.97 1.456-1.042 3.648-.76 4.84.561l2.027-2.027c-2.13-2.294-5.904-2.646-8.494-.938-2.364 1.452-3.52 4.605-2.541 7.22.552 1.621 1.82 2.972 3.364 3.665z" class="cls-2" data-name="Фигура 677"/></svg>